<svg xmlns="http://www.w3.org/2000/svg" xml:space="preserve" viewBox="0 0 517.1 80.8"><path d="M280.5 38.6h.1c6.5-3.5 13.8-12.3 13.8-22.1 0-12-11.6-16.5-26.6-16.5h-35.6l-7.8 38.6-8.1 40.3h36.3c23.2 0 37.3-6.1 37.3-27.1 0-6.6-3.2-11.4-9.4-13.2M255 60.7h-10.7l2.9-13.4h7.8c7.8 0 12.2.7 12.2 5.3 0 7.7-6.2 8.1-12.2 8.1m5.3-27.7h-10.1l2.7-13.4h8.6c5.2 0 8.9.6 8.9 4.5-.1 6.1-5.2 8.9-10.1 8.9M443.1 0l-3.7 18.6h37.1l-21.3 20-22.8 21.6-3.8 18.7h67.1l3.7-18.2h-37.6L485 38.6l21.4-20.3h.1L510.2 0zm-78.5 44.7 1.2-6.1L373.6 0h-24.4l-7.8 38.6-1.8 8.7c-1.8 8.6-5.5 14.5-14.3 14.5-7.2 0-9.3-3.4-9.3-8.3 0-1.9.3-3.9.7-6.1l1.8-8.7L326.3 0h-24.4l-7.8 38.6-1.2 6c-.9 4.4-1.3 8.7-1.3 12.3 0 17.8 10.9 24.2 30 24.2 24.7 0 37.9-11.1 43-36.4m27.4 16 23.3-22.1 21.4-20.3L440.4 0h-64.2l-3.7 18.6h34.2l-21.2 20-22.9 21.6-3.8 18.7h67.1l3.8-18.2z" style="fill:#d01f3c"/><path d="M75.4 49.4H51.7c-2.5 7.2-7.4 12.9-15.4 12.9-8.9 0-11.6-5.1-11.6-11.9 0-2.1.4-6.1 1.4-10.7 2.2-9.3 7.4-20.8 18.2-20.8 7 0 10.9 3.6 10.9 10.3 0 .7-.1 1.4-.2 2.1h23.5c.2-1.7.3-3.2.3-4.7C78.9 9.7 68.4 0 47.3 0 26.7 0 6.4 16.1 1.2 39.7.4 43.5 0 47.3 0 51.4c0 18.5 11.7 29.7 32.7 29.7 19.9 0 36.3-11.9 42.7-31.7m59.7-9.7-5.3-37.5h-25.1l-21 37.5-22 39.2h24.2l5-10.1h24.6l.7 10.1h24.6zm-21.8 0 .8 9.7h-13.7l4.7-9.7 7-14.4m94.3 14.4C217.5 37.2 223 28.9 223 18c0-10.8-8.2-15.8-29.6-15.8h-35.6L150 39.7l-8.2 39.2h24.7l6.4-29.9h7.5c8.5 0 11.2 1.8 11.2 6.9 0 4.1-2.8 14.6-4.6 23.1h23.5c2.2-10.5 2.1-10.6 4.7-24.4 1.3-7.3-2.6-12.5-8.8-14.9M198.7 26c-.9 4.3-4 6.1-12.7 6.1h-9.7l2.5-12.2h11.5c5.7 0 9.2 2.6 8.4 6.1" style="fill:#fff"/></svg>