<svg width="415" height="55" viewBox="0 0 415 55" fill="none" xmlns="http://www.w3.org/2000/svg">
<path d="M287.577 17.149C281.472 17.149 276.507 22.0755 276.507 28.1293C276.507 34.1832 281.472 39.1096 287.577 39.1096C293.682 39.1096 298.646 34.1832 298.646 28.1293C298.646 22.0755 293.682 17.149 287.577 17.149ZM287.577 36.6251C282.961 36.6251 279.864 32.2347 279.864 28.1336C279.864 24.0324 282.965 19.6675 287.577 19.6675C292.188 19.6675 295.29 24.0452 295.29 28.1336C295.29 32.2219 292.188 36.6251 287.577 36.6251Z" fill="white"/>
<path d="M327.325 17.4511H322.262V38.8118H327.622C335.429 38.8118 341.096 34.0811 341.096 27.5593C341.096 21.4161 335.688 17.4511 327.32 17.4511M327.069 36.2933H325.619V19.9654H327.005C333.731 19.9654 337.743 22.8285 337.743 27.6231C337.743 32.8899 333.553 36.2933 327.069 36.2933Z" fill="white"/>
<path d="M412.444 34.0385L411.087 32.4687V34.3108L412.444 34.0385Z" fill="white"/>
<path d="M398.312 22.9051L399.571 24.3473V22.1989L398.312 22.9051Z" fill="white"/>
<path d="M399.571 24.3473L398.311 22.9051L399.571 22.1989V24.3473L412.21 38.8118H413.605V17.4511H411.087V32.4687L412.444 34.0385L411.087 34.3108V32.4687L398.205 17.5574L398.213 17.4511H397.052V38.8118H399.571V24.3473Z" fill="white"/>
<path d="M267.969 27.6273H263.157L262.621 30.1458H267.969V36.1231C267.08 36.3954 266.042 36.455 265.306 36.455C261.073 36.455 256.091 33.6982 256.091 27.6188C256.091 22.6711 259.452 19.6675 263.566 19.6675C265.688 19.6675 267.505 20.4801 269.122 22.1563L269.305 22.3435L269.981 19.1655C268.675 18.2168 266.552 17.149 263.655 17.149C260.992 17.149 258.282 18.2721 256.218 20.2249C253.968 22.3563 252.734 25.2577 252.734 28.4016C252.734 35.4339 258.545 39.1139 264.284 39.1139C266.922 39.1139 269.334 38.5268 271.262 37.4164L271.419 37.3271V27.6316H267.969V27.6273Z" fill="white"/>
<path d="M379.239 30.9669L378.155 33.4855H386.769L385.731 30.9669H379.239Z" fill="white"/>
<path d="M381.682 21.1395L382.554 23.2539L383.664 20.6758L381.682 21.1395Z" fill="white"/>
<path d="M382.358 17.4511L373.049 38.8118H375.866L378.154 33.4855H377.806V30.9669H379.239L382.553 23.2539L381.681 21.1395L383.659 20.6758L382.553 23.2539L385.731 30.9669H387.084V33.4855H386.769L388.965 38.8118H392.751L383.821 17.4511H382.358Z" fill="white"/>
<path d="M377.81 30.9669V33.4855H378.155L379.239 30.9669H377.81Z" fill="white"/>
<path d="M387.084 30.9669H385.731L386.77 33.4855H387.084V30.9669Z" fill="white"/>
<path d="M306.542 17.4511H303.186V38.8118H316.936L317.472 36.2933H306.542V17.4511Z" fill="white"/>
<path d="M366.97 17.4511H362.694L357.394 32.7495L352.267 17.4511H347.821L345.843 38.8118H348.494L349.957 21.4671L348.906 18.4934L350.217 18.3487L349.957 21.4671L356.071 38.8118H357.955L363.873 21.7564L363.562 18.2211L365.081 18.2679L363.873 21.7564L365.358 38.8118H368.782L366.97 17.4511Z" fill="white"/>
<path d="M363.562 18.2211L363.873 21.7564L365.081 18.2679L363.562 18.2211Z" fill="white"/>
<path d="M348.906 18.4934L349.957 21.4671L350.217 18.3487L348.906 18.4934Z" fill="white"/>
<path d="M65.0264 23.122C65.0264 19.5186 61.8783 17.5362 56.1648 17.5362H50.7874V38.7225H54.1057V29.0057H55.9478L62.6908 38.7225H67.2897L59.5597 28.6313C62.9929 27.823 65.0264 25.7852 65.0264 23.122ZM54.1057 26.534V20.0334H56.2201C58.2706 20.0334 61.7123 20.4461 61.7123 23.2199C61.7123 25.3257 59.7128 26.534 56.2201 26.534H54.1057Z" fill="white"/>
<path d="M105.098 26.6446H93.6667V17.5362H90.3398V38.7225H93.6667V29.1376H105.098V38.7225H108.425V17.5362H105.098V26.6446Z" fill="white"/>
<path d="M33.1197 30.9456L32.0476 33.4429H40.5902L39.5607 30.9456H33.1197Z" fill="white"/>
<path d="M35.5444 21.1948L36.4081 23.2964L37.5057 20.7396L35.5444 21.1948Z" fill="white"/>
<path d="M36.2126 17.5362L26.9851 38.7225H29.7759L32.0477 33.4429H31.7031V30.9457H33.1198L36.4083 23.2922L35.5447 21.1948L37.5059 20.7396L36.4083 23.2922L39.5608 30.9457H40.9009V33.4429H40.5903L42.7642 38.7225H46.5208L37.6634 17.5362H36.2126Z" fill="white"/>
<path d="M40.9006 30.9456H39.5605L40.5901 33.4429H40.9006V30.9456Z" fill="white"/>
<path d="M31.7031 30.9456V33.4429H32.0477L33.1198 30.9456H31.7031Z" fill="white"/>
<path d="M118.507 30.9456L117.435 33.4429H125.978L124.948 30.9456H118.507Z" fill="white"/>
<path d="M121.604 17.5362L112.373 38.7225H115.163L117.435 33.4429H117.091V30.9457H118.507L121.8 23.2922L120.932 21.1948L122.898 20.7396L121.8 23.2922L124.948 30.9457H126.293V33.4429H125.978L128.156 38.7225H131.908L123.055 17.5362H121.604Z" fill="white"/>
<path d="M120.932 21.1948L121.8 23.2964L122.898 20.7396L120.932 21.1948Z" fill="white"/>
<path d="M126.293 30.9456H124.948L125.978 33.4429H126.293V30.9456Z" fill="white"/>
<path d="M117.091 30.9456V33.4429H117.435L118.507 30.9456H117.091Z" fill="white"/>
<path d="M139.192 17.5362H135.865V38.7225H149.5L150.032 36.2252H139.192V17.5362Z" fill="white"/>
<path d="M157.842 17.5362H154.515V38.7225H168.15L168.682 36.2252H157.842V17.5362Z" fill="white"/>
<path d="M17.5745 18.3019L17.8808 21.8074L19.0805 18.3487L17.5745 18.3019Z" fill="white"/>
<path d="M3.04175 18.5699L4.07979 21.5224L4.33931 18.4295L3.04175 18.5699Z" fill="white"/>
<path d="M16.7151 17.5362L11.4568 32.7112L6.37292 17.5362H1.96123L0 38.7225H2.62915L4.07986 21.5182L3.04181 18.57L4.33937 18.4296L4.07986 21.5182L10.1465 38.7225H12.0141L17.8808 21.8075L17.5744 18.3019L19.0805 18.3487L17.8808 21.8075L19.357 38.7225H22.7519L20.9523 17.5362H16.7151Z" fill="white"/>
<path d="M79.2318 26.7084L79.0573 26.6403C75.9858 25.4151 74.3819 24.6834 74.3819 22.6073C74.3819 21.7054 75.0073 19.6506 77.8576 19.6506C80.708 19.6506 82.7884 21.6756 82.8096 21.6969L83.1329 22.0202L83.7328 19.2039C83.0776 18.7104 80.7761 17.1533 77.8576 17.1533C73.4374 17.1533 71.0508 20.0973 71.0508 22.8668C71.0508 27.002 75.2285 28.6824 77.7215 29.6907C81.2228 31.0988 81.7886 31.9667 81.7886 33.494C81.7886 35.536 79.5466 36.6209 77.4492 36.6209C74.2543 36.6209 71.9782 34.8213 71.9569 34.8043L71.6379 34.5491L71.0635 37.259C71.6719 37.7057 73.8926 39.1224 77.4535 39.1224C81.0143 39.1224 84.9878 36.7358 84.9878 32.741C84.9878 29.0015 81.5248 27.6273 79.236 26.7169" fill="white"/>
<path d="M361.031 52.9658H364.447V51.932H362.231V50.2516H364.354V49.2178H362.231V47.8437H364.447V46.8141H361.031V52.9658Z" fill="white"/>
<path d="M370.246 49.7921C369.931 49.5071 369.48 49.3412 368.999 49.1753C368.612 49.0349 368.408 48.9626 368.263 48.8264C368.114 48.6988 368.068 48.5584 368.068 48.4095C368.068 48.0947 368.272 47.6905 368.914 47.6905C369.135 47.6905 369.561 47.7373 369.918 48.2181L370.544 47.397C369.918 46.7503 369.186 46.678 368.799 46.678C367.434 46.678 366.825 47.5799 366.825 48.4861C366.825 49.1115 367.11 49.456 367.315 49.6305C367.629 49.907 368.016 50.0559 368.34 50.1665C368.689 50.2856 369.059 50.4048 369.289 50.6175C369.454 50.7749 369.527 50.9493 369.527 51.1705C369.527 51.6853 369.123 52.0171 368.578 52.0171C368.144 52.0171 367.583 51.7959 367.285 51.1961L366.502 51.9448C366.825 52.417 367.489 53.1062 368.621 53.1062C369.893 53.1062 370.76 52.2851 370.76 51.0854C370.76 50.4601 370.514 50.0431 370.237 49.7921" fill="white"/>
<path d="M372.373 47.8437H373.76V52.9658H374.955V47.8437H376.342V46.8141H372.373V47.8437Z" fill="white"/>
<path d="M382.277 47.414C381.596 46.9077 380.848 46.8141 379.988 46.8141H378.384V52.9658H379.971C380.83 52.9658 381.503 52.8807 382.222 52.3745C383.034 51.8044 383.455 50.9195 383.455 49.8942C383.455 48.8689 383.021 47.9755 382.277 47.414ZM381.456 51.5236C380.92 51.9108 380.256 51.9278 379.954 51.9278H379.584V47.8437H379.954C380.363 47.8437 380.971 47.8819 381.464 48.2478C381.954 48.6179 382.222 49.2433 382.222 49.89C382.222 50.5366 381.945 51.1705 381.456 51.5236Z" fill="white"/>
<path d="M386.319 51.647C385.914 51.647 385.6 51.9618 385.6 52.366C385.6 52.7701 385.914 53.085 386.319 53.085C386.723 53.085 387.038 52.7701 387.038 52.366C387.038 51.9618 386.723 51.647 386.319 51.647Z" fill="white"/>
<path d="M393.427 47.8437H394.312V52.9658H395.512V46.8141H393.427V47.8437Z" fill="white"/>
<path d="M400.489 46.6738C399.86 46.6738 399.264 46.8014 398.737 47.3757C398.32 47.8267 398.175 48.3457 398.175 48.8605C398.175 49.5071 398.435 50.0304 398.758 50.3367C399.115 50.6855 399.673 50.8642 400.102 50.8642C400.323 50.8642 400.562 50.8089 400.757 50.7451L399.29 52.6638L400.26 53.136L402.068 50.7196C402.502 50.1495 402.842 49.5497 402.842 48.8009C402.842 48.1075 402.574 47.6395 402.242 47.3077C401.736 46.8014 401.145 46.6823 400.489 46.6823M401.31 49.5709C401.089 49.8007 400.838 49.9028 400.506 49.9028C400.204 49.9028 399.945 49.8304 399.715 49.6092C399.502 49.405 399.375 49.1285 399.375 48.7626C399.375 48.3585 399.558 48.099 399.707 47.9501C399.864 47.7926 400.124 47.6352 400.511 47.6352C400.898 47.6352 401.149 47.7926 401.302 47.9373C401.485 48.1117 401.642 48.3797 401.642 48.7669C401.642 49.0817 401.532 49.3369 401.31 49.5709Z" fill="white"/>
<path d="M404.621 47.8437H407.479L404.65 52.6978L405.663 53.1487L409.36 46.8141H404.621V47.8437Z" fill="white"/>
<path d="M413.678 49.7539C414.15 49.5241 414.563 49.0732 414.563 48.3882C414.563 47.4948 413.916 46.6738 412.635 46.6738C411.355 46.6738 410.708 47.4948 410.708 48.3882C410.708 49.0689 411.121 49.5241 411.593 49.7539C410.913 49.9751 410.496 50.5749 410.496 51.2854C410.496 52.2979 411.308 53.102 412.635 53.102C413.963 53.102 414.775 52.2979 414.775 51.2854C414.775 50.5749 414.358 49.9751 413.678 49.7539ZM412.635 47.5416C413.142 47.5416 413.495 47.8905 413.495 48.401C413.495 48.9115 413.146 49.2604 412.635 49.2604C412.125 49.2604 411.776 48.9115 411.776 48.401C411.776 47.8905 412.125 47.5416 412.635 47.5416ZM412.635 52.1618C412.099 52.1618 411.695 51.7661 411.695 51.2046C411.695 50.643 412.099 50.2431 412.635 50.2431C413.172 50.2431 413.576 50.6388 413.576 51.2046C413.576 51.7704 413.172 52.1618 412.635 52.1618Z" fill="white"/>
<path d="M231.233 45.9973C238.04 33.7067 238.04 21.2416 231.233 8.951C224.609 5.973 217.9 4.46274 211.289 4.46274C204.678 4.46274 197.973 5.973 191.345 8.951C184.538 21.2416 184.538 33.7067 191.345 45.9973C197.969 48.9753 204.678 50.4856 211.289 50.4856C217.9 50.4856 224.605 48.9753 231.233 45.9973ZM192.009 9.66573C198.424 6.82387 204.908 5.38592 211.293 5.38592C217.679 5.38592 224.162 6.82387 230.578 9.66573C237.023 21.4841 237.023 33.4642 230.578 45.2826C224.167 48.1244 217.679 49.5624 211.293 49.5624C204.908 49.5624 198.424 48.1244 192.009 45.2826C185.563 33.4642 185.563 21.4841 192.009 9.66573Z" fill="white"/>
<path d="M234.419 5.48803L233.152 4.91795C225.919 1.65491 218.564 0 211.289 0C204.014 0 196.663 1.65491 189.426 4.91795L188.158 5.48803L187.448 6.77707C179.841 20.5099 179.841 34.4342 187.448 48.167L188.163 49.456L189.43 50.0304C196.663 53.2934 204.018 54.9483 211.293 54.9483C218.568 54.9483 225.919 53.2934 233.156 50.0304L234.424 49.456L235.134 48.167C242.741 34.4342 242.741 20.5099 235.134 6.77707L234.424 5.48803H234.419ZM234.326 47.7203L233.76 48.7413L232.769 49.188C225.656 52.3957 218.428 54.0251 211.289 54.0251C204.15 54.0251 196.918 52.3957 189.809 49.188L188.822 48.7413L188.256 47.7203C180.811 34.2853 180.811 20.6588 188.256 7.22377L188.822 6.20274L189.809 5.75604C196.922 2.54831 204.15 0.918926 211.289 0.918926C218.428 0.918926 225.66 2.54831 232.769 5.75604L233.76 6.20274L234.326 7.22377C241.771 20.6588 241.771 34.2853 234.326 47.7203Z" fill="white"/>
<path d="M220.227 42.1472L220.27 42.1216V32.6006H214.658L213.846 34.4214H217.47V41.4027L217.181 41.492C216.194 41.7941 214.229 41.8579 213.446 41.8579C210.97 41.8579 208.502 41.007 206.686 39.5223C205.171 38.2843 203.363 36.0082 203.363 32.1751C203.363 29.8565 204.052 27.8528 205.252 26.3468L204.474 24.4621C204.38 24.5472 204.286 24.628 204.193 24.7131C201.917 26.87 200.666 29.8098 200.666 32.992C200.666 40.0966 206.554 43.8149 212.374 43.8149C215.028 43.8149 218.283 43.2363 220.227 42.1387" fill="white"/>
<path d="M220.278 14.8729H220.606L227.259 34.3661L227.276 34.4214H230.008L222.886 12.8351H218.959L215.088 20.8928C215.803 21.097 216.449 21.3522 217.024 21.633L220.278 14.8729Z" fill="white"/>
<path d="M201.751 14.873L209.855 34.3703L209.876 34.4214H211.314L215.726 24.543C216.062 24.7429 216.394 24.9726 216.717 25.2279C217.019 25.4704 217.317 25.7299 217.606 26.0192L217.662 26.0745L219.283 24.6365L219.219 24.5727C218.887 24.2494 218.338 23.7687 217.585 23.2879C217.274 23.0922 216.93 22.8923 216.547 22.7093C215.968 22.4243 215.309 22.1691 214.573 21.9734C214.194 21.8755 213.794 21.7904 213.378 21.7309C212.854 21.6543 212.301 21.6075 211.714 21.6075C210.846 21.6075 209.97 21.7266 209.115 21.9563C208.736 22.0584 208.357 22.1818 207.987 22.3265L204.048 12.8905L204.027 12.8394H199.93L192.617 34.315L192.578 34.4256H194.922L201.508 14.8772H201.759L201.751 14.873ZM209.795 23.607C210.374 23.4879 210.982 23.4283 211.612 23.4283C211.923 23.4283 212.233 23.4453 212.531 23.4794C212.944 23.5219 213.344 23.5985 213.739 23.7006L213.216 24.7897L210.961 29.4822L209.102 25.0279L208.643 23.9303C209.013 23.7985 209.396 23.6921 209.791 23.6113" fill="white"/>
<path d="M232.497 7.57692L232.777 8.08318C239.908 20.9481 239.908 33.996 232.777 46.8652L232.497 47.3715L232.041 47.5757C225.158 50.6813 218.177 52.2554 211.289 52.2554C204.401 52.2554 197.416 50.6813 190.537 47.5757L190.081 47.3715L189.477 48.0309L190.188 48.35C197.182 51.5066 204.278 53.1062 211.289 53.1062C218.3 53.1062 225.396 51.5066 232.39 48.35L233.101 48.0309L233.518 47.2779C240.797 34.1406 240.797 20.8162 233.518 7.67476L233.101 6.92175L232.497 7.57692Z" fill="white"/>
<path d="M233.764 6.20273L233.105 6.91745L233.522 7.67046C240.801 20.8077 240.801 34.1321 233.522 47.2736L233.105 48.0266L232.394 48.3456C225.4 51.5023 218.304 53.1019 211.293 53.1019C204.282 53.1019 197.182 51.5023 190.192 48.3456L189.481 48.0266L188.822 48.7413L189.809 49.188C196.922 52.3957 204.15 54.0251 211.289 54.0251C218.428 54.0251 225.656 52.3957 232.769 49.188L233.76 48.7413L234.326 47.7203C241.767 34.2852 241.767 20.6588 234.326 7.22375L233.76 6.20273H233.764Z" fill="white"/>
<path d="M190.541 46.444C183.572 33.8556 183.572 21.0927 190.541 8.50431L190.69 8.23629L190.97 8.10867C197.713 5.07962 204.55 3.53957 211.293 3.53957C218.036 3.53957 224.869 5.07536 231.612 8.10441L231.892 8.23203L232.497 7.57688L232.041 7.37267C225.158 4.26705 218.177 2.69296 211.289 2.69296C204.401 2.69296 197.42 4.26705 190.537 7.37267L190.081 7.57688L189.801 8.08314C182.67 20.9481 182.67 33.996 189.801 46.8652L190.081 47.3714L190.685 46.7163L190.537 46.4483L190.541 46.444Z" fill="white"/>
<path d="M231.612 8.10867C224.869 5.07962 218.032 3.54382 211.293 3.54382C204.554 3.54382 197.718 5.07961 190.97 8.11292L190.69 8.24055L190.541 8.50858C183.572 21.097 183.572 33.8598 190.541 46.4483L190.69 46.7163L191.349 46.0016C184.542 33.7109 184.542 21.2459 191.349 8.95527C197.973 5.97727 204.682 4.467 211.293 4.467C217.904 4.467 224.609 5.97727 231.237 8.95101L231.897 8.2363L231.616 8.10867H231.612Z" fill="white"/>
</svg>
