<svg xmlns="http://www.w3.org/2000/svg" xmlns:xlink="http://www.w3.org/1999/xlink" width="100" height="50" viewBox="0 0 100 50.004"><defs><clipPath id="a"><path d="M459.121 199.94v-7.298h2.16v2.288h2.36v2.055h-2.332v.977h2.726l-.029 1.978z"/></clipPath><clipPath id="b"><path d="M0-.47h1.124v.936H0z"/></clipPath><clipPath id="d"><path d="m475.342 199.979-.836-1.555-.951 1.555h-2.601l2.235-3.481-2.388-3.855v-.001h2.582l1.068 1.618 1.075-1.618h2.64v.001l-2.451 3.829 2.268 3.507z"/></clipPath><clipPath id="e"><path d="M-.006-.513H1V.494H-.006z"/></clipPath><clipPath id="f"><path d="M463.965 196.303c0-2.043 1.811-3.699 4.043-3.699 2.235 0 4.041 1.656 4.041 3.699s-1.806 3.702-4.041 3.702c-2.232 0-4.043-1.658-4.043-3.702m3.385-1.73v3.386s-.028.524.688.524c.718 0 .673-.524.673-.524v-3.111c0-.353-.041-.644-.703-.644-.658 0-.658.369-.658.369"/></clipPath><clipPath id="g"><path d="M-.149-.676h1.298V.677H-.149z"/></clipPath><clipPath id="h"><path d="m478.525 199.979 2.422-8.25h.988l.002.001-1.093 8.249z"/></clipPath><clipPath id="i"><path d="M0-.268h1v.676H0z"/></clipPath><clipPath id="j"><path d="m476.35 196.52 2.995-4.791h1.253l-2.625 7.24z"/></clipPath><clipPath id="k"><path d="M-.072-.474H1v.84H-.072z"/></clipPath><clipPath id="l"><path d="M459.112 192.197v-.47h19.595l-.295.47z"/></clipPath><clipPath id="m"><path d="M0-1.311h1v2.6H0z"/></clipPath><clipPath id="n"><path d="M464.9 191.321v-1.689q.001-.185-.117-.185h-1.611q-.12 0-.121.185v1.689h-.572v-1.689q0-.31.193-.533a.63.63 0 0 1 .5-.223h1.611q.304 0 .499.223a.78.78 0 0 1 .193.533v1.689z"/></clipPath><clipPath id="o"><path d="M0-.55h1.061V.617H0z"/></clipPath><clipPath id="p"><path d="M466.534 191.321a.63.63 0 0 1-.497-.222.8.8 0 0 1-.195-.533q0-.31.191-.526a.64.64 0 0 1 .501-.226h1.531q.118 0 .12-.183-.001-.184-.12-.184h-2.104v-.571h2.104q.305 0 .502.228a.78.78 0 0 1 .185.527c0 .203-.06.381-.185.525a.63.63 0 0 1-.502.228h-1.531q-.118 0-.12.182.001.184.12.184h2.103v.571z"/></clipPath><clipPath id="q"><path d="M-.066-.613h1.132V.615H-.066z"/></clipPath><clipPath id="r"><path d="M469.054 191.321v-2.445h.569l.002.001v2.444z"/></clipPath><clipPath id="s"><path d="M0-.275h1v.551H0z"/></clipPath><clipPath id="t"><path d="M472.022 191.321v-1.636l-1.465 1.636h-.571v-2.445h.571v1.647l1.465-1.647h.568v2.445z"/></clipPath><clipPath id="u"><path d="M0-.515h1v1.03H0z"/></clipPath><clipPath id="v"><path d="M472.955 191.321v-2.445h2.599v.571h-2.029v.367h1.9v.57h-1.9v.366h2.033v.571z"/></clipPath><clipPath id="w"><path d="M0-.515h1v1.03H0z"/></clipPath><clipPath id="x"><path d="M476.614 191.321a.63.63 0 0 1-.497-.222.8.8 0 0 1-.195-.533q0-.31.191-.526a.64.64 0 0 1 .501-.226h1.531q.118 0 .119-.183-.001-.184-.119-.184h-2.104v-.571h2.106q.303 0 .504.228a.8.8 0 0 1 .183.527.8.8 0 0 1-.183.525.64.64 0 0 1-.504.228h-1.533q-.12 0-.12.182 0 .184.12.184h2.105v.571z"/></clipPath><clipPath id="y"><path d="M-.066-.613h1.132V.615H-.066z"/></clipPath><clipPath id="z"><path d="M479.824 191.321a.64.64 0 0 1-.496-.222.8.8 0 0 1-.195-.533q.002-.31.187-.526a.66.66 0 0 1 .504-.226h1.534q.118 0 .12-.183-.001-.184-.12-.184h-2.104v-.571h2.104a.64.64 0 0 1 .502.228.78.78 0 0 1 .185.527c0 .203-.06.381-.185.525a.64.64 0 0 1-.502.228h-1.534q-.116 0-.117.182 0 .184.117.184h2.106v.571z"/></clipPath><clipPath id="A"><path d="M-.067-.613h1.132V.615H-.067z"/></clipPath><clipPath id="B"><path d="M459.124 191.321v-2.445h2.367q.322-.001.512.209.176.187.176.465a.62.62 0 0 1-.301.565q.255.191.254.532a.654.654 0 0 1-.683.674zm.57-.571h1.754q.123 0 .122-.186 0-.186-.122-.187h-1.754zm0-.936h1.796q.124 0 .125-.183-.001-.184-.125-.184h-1.796z"/></clipPath><clipPath id="C"><path d="M0-.623h1.058V.551H0z"/></clipPath></defs><use xlink:href="#surface5281" width="100%" height="100%" transform="translate(-450.725 114.292)scale(1.33344)"/><use xlink:href="#surface5281" width="100%" height="100%" transform="translate(-450.725 114.292)scale(1.33344)"/><use xlink:href="#surface5281" width="100%" height="100%" transform="translate(-567.877 185.726)scale(1.33344)"/><g style="fill:#000"><g clip-path="url(#a)" style="fill:#000" transform="matrix(4.2443 0 0 -4.2443 -1947.25 849.95)"><g clip-path="url(#b)" style="fill:#000" transform="scale(7.59766 -7.59766)rotate(70 49.105 30.062)"><path d="M4.061 65.923-93.895 30.27l27.55-75.693L31.611-9.77Z" style="fill:#000"/></g></g><g clip-path="url(#d)" style="fill:#000" transform="matrix(4.2443 0 0 -4.2443 -1947.25 849.95)"><g clip-path="url(#e)" style="fill:#000" transform="scale(9.36035 -9.36035)rotate(70 40.563 25.351)"><path d="m2.868 54.798-79.51-28.94L-54.28-35.58 25.23-6.64z" style="fill:#000"/></g></g><g clip-path="url(#f)" style="fill:#000" transform="matrix(4.2443 0 0 -4.2443 -1947.25 849.95)"><g clip-path="url(#g)" style="fill:#000" transform="scale(7.48633 -7.48633)rotate(70 50.232 31.172)"><path d="M3.759 67.713-95.654 31.53l27.96-76.819L31.719-9.106Z" style="fill:#000"/></g></g><g clip-path="url(#h)" style="fill:#000" transform="matrix(4.2443 0 0 -4.2443 -1947.25 849.95)"><g clip-path="url(#i)" style="fill:#000" transform="scale(8.91895 -8.91895)rotate(70 42.903 27.147)"><path d="m2.72 58.177-83.445-30.37 23.469-64.48 83.444 30.37Z" style="fill:#000"/></g></g><g clip-path="url(#j)" style="fill:#000" transform="matrix(4.2443 0 0 -4.2443 -1947.25 849.95)"><g clip-path="url(#k)" style="fill:#000" transform="scale(7.70019 -7.70019)rotate(70 49.378 31.328)"><path d="m3.051 67.014-96.652-35.179 27.184-74.685L30.234-7.672Z" style="fill:#000"/></g></g><g clip-path="url(#l)" style="fill:#000" transform="matrix(4.2443 0 0 -4.2443 -1947.25 849.95)"><g clip-path="url(#m)" style="fill:#000" transform="scale(7.14356 -7.14356)rotate(70 52.251 33.074)"><path d="m3.3 70.862-104.182-37.92 29.301-80.505L32.602-9.643Z" style="fill:#000"/></g></g><g clip-path="url(#n)" style="fill:#000" transform="matrix(4.2443 0 0 -4.2443 -1947.25 849.95)"><g clip-path="url(#o)" style="fill:#000" transform="scale(3.12989 -3.12989)rotate(70 117.78 75.124)"><path d="M6.903 160.107-230.88 73.561l66.877-183.742L73.78-23.635Z" style="fill:#000"/></g></g><g clip-path="url(#p)" style="fill:#000" transform="matrix(4.2443 0 0 -4.2443 -1947.25 849.95)"><g clip-path="url(#q)" style="fill:#000" transform="scale(2.9082 -2.9082)rotate(70 127.268 81.7)"><path d="m6.968 173.35-255.91-93.144 71.974-197.748L78.942-24.4Z" style="fill:#000"/></g></g><g clip-path="url(#r)" style="fill:#000" transform="matrix(4.2443 0 0 -4.2443 -1947.25 849.95)"><g clip-path="url(#s)" style="fill:#000" transform="scale(2.49316 -2.49316)rotate(70 148.822 95.944)"><path d="M7.764 202.976-290.747 94.327l83.956-230.668L91.72-27.69Z" style="fill:#000"/></g></g><g clip-path="url(#t)" style="fill:#000" transform="matrix(4.2443 0 0 -4.2443 -1947.25 849.95)"><g clip-path="url(#u)" style="fill:#000" transform="scale(3.1875 -3.1875)rotate(70 116.764 75.403)"><path d="m5.972 159.336-233.485-84.982 65.668-180.421L71.64-21.085Z" style="fill:#000"/></g></g><g clip-path="url(#v)" style="fill:#000" transform="matrix(4.2443 0 0 -4.2443 -1947.25 849.95)"><g clip-path="url(#w)" style="fill:#000" transform="scale(3.18653 -3.18653)rotate(70 117.266 76.091)"><path d="m5.656 160.26-233.557-85.008 65.688-180.476L71.344-20.216Z" style="fill:#000"/></g></g><g clip-path="url(#x)" style="fill:#000" transform="matrix(4.2443 0 0 -4.2443 -1947.25 849.95)"><g clip-path="url(#y)" style="fill:#000" transform="scale(2.90918 -2.90918)rotate(70 128.958 84.146)"><path d="m5.78 176.547-255.823-93.111 71.95-197.682L77.73-21.134Z" style="fill:#000"/></g></g><g clip-path="url(#z)" style="fill:#000" transform="matrix(4.2443 0 0 -4.2443 -1947.25 849.95)"><g clip-path="url(#A)" style="fill:#000" transform="scale(2.9082 -2.9082)rotate(70 129.553 84.963)"><path d="m5.404 177.644-255.91-93.143 71.975-197.748 255.91 93.143Z" style="fill:#000"/></g></g><g clip-path="url(#B)" style="fill:#000" transform="matrix(4.2443 0 0 -4.2443 -1947.25 849.95)"><g clip-path="url(#C)" style="fill:#000" transform="scale(3.1582 -3.1582)rotate(70 116.15 73.662)"><path d="m7.205 157.613-235.652-85.77 66.277-182.095 235.652 85.77Z" style="fill:#000"/></g></g></g></svg>