<svg xmlns="http://www.w3.org/2000/svg" width="523" height="416" fill="none"><g clip-path="url(#a)"><path fill="#FEFEFE" d="M130.947 95.12c24.374-.169 47.031 3.1 69.888 11.58-.27 6.916-2.399 14.903-3.878 21.795-2.01 9.365-3.977 19.104-6.32 28.369-13.703-1.825-27.349-5.717-41.526-6.258-10.873.025-25.35-1.676-34.989 3.81-2.071 1.178-2.346 5.548.093 7.166 4.343 2.882 10.605 2.764 15.715 3.129 21.536 1.338 52.071 1.372 68.424 17.808 20.345 20.449 16.791 67.439-3.672 86.806-21.224 20.087-50.021 20.672-77.049 20.396-18.77-.339-36.139-1.751-54.507-6.351-6.073-1.522-10.769-3.355-16.577-5.11.971-3.892 1.675-8.823 2.317-12.85l3.19-19.819c.599-3.556 1.334-8.327 2.33-11.676 16.034 3.402 32.26 8.997 49.182 9.151 10.715-.314 24.995 1.933 34.232-4.268 2.818-1.628 1.772-8.624-.937-9.335-26.103-6.846-56.686 1.055-78.357-19.148-11.543-10.761-14.509-26.977-14.975-42.428-.552-18.264 2.994-36.582 16.176-50.268 19.102-19.598 45.554-22.035 71.24-22.498M380.342 31.008c27.853.078 56.034-.292 83.851.023 1.039 18.151.46 39.086.444 57.487l.011 94.829-.011 66.874.057 18.302c.023 4.689.069 11.367-.465 16.014l-.11.557c-2.74-.015-6.004-14.359-6.816-17.079a630 630 0 0 0-8.481-26.347c-13.606-38.987-35.128-88.049-68.37-113.585zM337.384 119.365c7.298-.607 13.728 1.208 20.342 3.982.404 9.492.401 15.879-.222 25.328-12.699.146-25.016-.281-37.759.229q-.303 25.928-.115 51.856l-.048 14.894c-.026 5.452-.616 14.132 3.296 18.183 4.676 4.838 18.239 3.715 24.534 3.679q5.398-.063 10.789.237c1.609 16.145 3.481 28.584 4.081 45.017-19.533 6.017-30.989 7.265-51.498 6.956-18.989-.63-34.194-3.963-49.603-16.277-4.817-3.848-13.863-14.204-14.758-20.221-.522-3.516 4.007-16.182 5.375-20.324 10.215-30.927 23.127-64.724 44.226-89.923 10.983-13.118 23.992-22.345 41.36-23.616"/><path fill="#FEFEFE" d="M288.677 45.556a483 483 0 0 1 30.81.205c.309 17.881-.076 35.639.238 53.52 12.61.169 25.481-.238 38.009.197.36 6.701.337 10.208-.107 16.927-12.181-2.308-24.411-3.26-36.442.399-31.684 9.636-52.79 40.338-67.599 68.168a286 286 0 0 0-7.536 15.327c-3.12 6.963-4.87 11.622-8.716 18.188-.452-23.381-.149-46.279-.432-69.594-7.164-.399-14.791-.232-22.008-.178a453 453 0 0 1-.329-22.921c.013-1.39.009-7.277.379-8.082 1.699-3.688 8.878-10.134 11.749-12.964A1187 1187 0 0 0 242.276 89.1l28.116-28.655c4.193-4.219 8.512-8.673 12.871-12.726 1.591-1.479 3.332-1.907 5.414-2.163M380.526 142.151c7.96 4.168 24.298 35.336 28.42 44.517 12.924 28.801 22.506 59.903 30.328 90.484.345 1.341 1.989 6.813 1.67 7.671-20.22.378-40.448.35-60.668-.084l.043-87.173q-.054-27.708.207-55.415M227.933 310.391c12.318-.513 25.646-.007 37.993.044 8.067.033 17.814 3.746 23.141 10.041 7.074 8.358 9.066 20.93 8.315 31.668-.84 10.274-4.124 19.059-12.12 25.887-11.88 9.329-27.748 6.977-41.824 7.309-6.594.153-13.427-.059-20.013-.322a3713 3713 0 0 1-.035-74.481z"/><path fill="#9A1C1E" d="M255.27 329.284c3.916-.062 10.674.155 12.379 4.67 2.973 7.876 2.475 18.9.534 27.049-.605 2.541-2.165 4.244-4.387 5.412-3.414 1.307-10.175.666-14.089.566l.005-37.24z"/><path fill="#FEFEFE" d="M160.535 309.107c10.415-.884 23.083 1.177 31.357 7.796 17.499 14.048 17.176 44.754 1.298 59.872-6.49 6.18-14.267 8.946-23.005 9.959-11.332.884-22.7-.904-32.03-8.317-16.009-12.717-17.151-41.488-4.634-56.92 6.641-8.187 16.606-11.489 27.014-12.39"/><path fill="#9A1C1E" d="M162.149 327.996c5.681-.503 12.123-.071 13.491 6.648 1.798 8.841 2.126 21.977-1.436 30.427-1.032 2.452-3.769 3.649-6.061 4.362-11.085 2.091-14.57-5.279-14.831-15.08-.183-6.869-1.035-16.532 2.381-22.794 1.347-2.472 3.909-3.121 6.456-3.563"/><path fill="#FEFEFE" d="M338.783 310.424c6.287-.569 15.634-.109 22.074.154.82 2.865 2.224 6.491 3.254 9.382l6.037 16.921a2639 2639 0 0 1 16.471 47.931c-8.683.858-18.474.63-27.189.176a152 152 0 0 0-1.612-3.754c-.59-1.328-1.706-4.564-2.842-5a287 287 0 0 0-23.04.196c-.505 2.061-1.915 5.927-2.62 8.131-8.118 1.282-14.145.835-22.324.404 4.512-15.843 12.007-33.186 17.774-48.748 2.275-6.144 7.135-21.043 10.38-25.576z"/><path fill="#9A1C1E" d="M344.174 335.157c.917.748 6.931 23.745 7.743 26.64q-3.453.101-6.905.136c-2.659-.008-5.417-.105-8.08-.164 2.426-9.142 5.232-17.265 7.242-26.612"/><path fill="#FEFEFE" d="M449.354 310.133c3.874-.214 10.817.355 14.849.6a280 280 0 0 1-10.12 20.905c-3.294 6.259-12.099 21.947-13.591 28.418-.878 3.812-.411 19.656-.523 24.947-9.911.452-17.113.753-26.962-.48-.164-9.022 1.527-19.186-1.19-27.603-.884-2.733-3.21-6.831-4.656-9.503-6.614-12.824-13.006-23.282-19.171-36.793a276 276 0 0 1 27.836-.069c3.767 7.617 6.724 13.818 9.467 22.007 1.473 4.395 2.571 8.655 3.976 12.955 1.134-11.905 6.154-23.752 11.456-34.365 2.883-.697 5.687-.863 8.629-1.019M51.835 310.399c8.879-.414 19.199-.072 28.2-.107 10.528-.044 22.217-.371 32.598.505q.171 9.332.066 18.663-9.419.286-18.842.291c-.578 13.509-.38 27.447-.252 40.984l.104 13.803c-9.589 1.239-17.284.868-26.902.478-.644-18.035.132-37.029-.251-55.281l-19.03-.125c-.35-6.992-.306-12.107 0-19.068z"/></g><defs><clipPath id="a"><path fill="#fff" d="M0 0h523v416H0z"/></clipPath></defs></svg>