<svg xmlns="http://www.w3.org/2000/svg" xml:space="preserve" width="1000" height="311.166"><defs><clipPath id="a" clipPathUnits="userSpaceOnUse"><path d="M430.311 715.04H594V792H430.311z"/></clipPath></defs><g clip-path="url(#a)" style="fill:#6c3c97;fill-opacity:1" transform="matrix(7.55785 0 0 -7.55785 -3370.794 5860.601)"><g style="fill:#6c3c97;fill-opacity:1"><path d="M0 0c0 3.755-3.021 6.779-6.715 6.779h-3.33V-6.719h3.33C-3.021-6.719 0-3.693 0 0m15.148-26.909H2.924l-9.705 13.468h-3.264V-26.88h-10.773v40.374h15.433c8.897 0 16.159-6.05 16.159-13.494 0-4.54-2.784-8.595-7.021-11.076z" style="fill:#6c3c97;fill-opacity:1;fill-rule:nonzero;stroke:none" transform="translate(466.883 761.872)"/></g><g style="fill:#6c3c97;fill-opacity:1"><path d="M0 0c-2.845 0-5.265-3.867-5.265-8.654s2.42-8.659 5.265-8.659c2.911 0 5.327 3.872 5.327 8.659S2.911 0 0 0m16.582-8.654c0-9.145-7.437-16.468-16.582-16.468-9.142 0-16.524 7.323-16.524 16.468C-16.524.484-9.142 7.811 0 7.811c9.145 0 16.582-7.327 16.582-16.465" style="fill:#6c3c97;fill-opacity:1;fill-rule:nonzero;stroke:none" transform="translate(494.18 759.449)"/></g><g style="fill:#6c3c97;fill-opacity:1"><path d="m0 0-12.41-12.408V.041h-10.771v-31.639h10.771v12.834L.546-31.598h13.557L-2.361-15.132 11.276-1.5v-18.776c0-6.234 3.749-11.987 13.19-11.987 4.482 0 8.595 2.542 10.594 4.842l4.843-4.177h2.299V0H31.431v-20.458c-1.213-2.117-2.903-3.448-5.515-3.448-2.65 0-3.866 1.571-3.866 6.596V0z" style="fill:#6c3c97;fill-opacity:1;fill-rule:nonzero;stroke:none" transform="translate(536.043 766.59)"/></g></g></svg>